<svg width="18" height="19" viewBox="0 0 18 19" fill="none" xmlns="http://www.w3.org/2000/svg">
<g clip-path="url(#clip0_1_1222)">
<path d="M2 4.98438C3.10457 4.98438 4 4.08894 4 2.98438C4 1.87981 3.10457 0.984375 2 0.984375C0.89543 0.984375 0 1.87981 0 2.98438C0 4.08894 0.89543 4.98438 2 4.98438Z" fill="#0031FF"/>
<path d="M2 11.9844C3.10457 11.9844 4 11.0889 4 9.98438C4 8.87981 3.10457 7.98438 2 7.98438C0.89543 7.98438 0 8.87981 0 9.98438C0 11.0889 0.89543 11.9844 2 11.9844Z" fill="#0031FF"/>
<path d="M2 18.9844C3.10457 18.9844 4 18.0889 4 16.9844C4 15.8798 3.10457 14.9844 2 14.9844C0.89543 14.9844 0 15.8798 0 16.9844C0 18.0889 0.89543 18.9844 2 18.9844Z" fill="#0031FF"/>
<path d="M9 4.98438C10.1046 4.98438 11 4.08894 11 2.98438C11 1.87981 10.1046 0.984375 9 0.984375C7.89543 0.984375 7 1.87981 7 2.98438C7 4.08894 7.89543 4.98438 9 4.98438Z" fill="#0031FF"/>
<path d="M9 11.9844C10.1046 11.9844 11 11.0889 11 9.98438C11 8.87981 10.1046 7.98438 9 7.98438C7.89543 7.98438 7 8.87981 7 9.98438C7 11.0889 7.89543 11.9844 9 11.9844Z" fill="#0031FF"/>
<path d="M9 18.9844C10.1046 18.9844 11 18.0889 11 16.9844C11 15.8798 10.1046 14.9844 9 14.9844C7.89543 14.9844 7 15.8798 7 16.9844C7 18.0889 7.89543 18.9844 9 18.9844Z" fill="#0031FF"/>
<path d="M16 4.98438C17.1046 4.98438 18 4.08894 18 2.98438C18 1.87981 17.1046 0.984375 16 0.984375C14.8954 0.984375 14 1.87981 14 2.98438C14 4.08894 14.8954 4.98438 16 4.98438Z" fill="#0031FF"/>
<path d="M16 11.9844C17.1046 11.9844 18 11.0889 18 9.98438C18 8.87981 17.1046 7.98438 16 7.98438C14.8954 7.98438 14 8.87981 14 9.98438C14 11.0889 14.8954 11.9844 16 11.9844Z" fill="#0031FF"/>
<path d="M16 18.9844C17.1046 18.9844 18 18.0889 18 16.9844C18 15.8798 17.1046 14.9844 16 14.9844C14.8954 14.9844 14 15.8798 14 16.9844C14 18.0889 14.8954 18.9844 16 18.9844Z" fill="#0031FF"/>
</g>
<defs>
<clipPath id="clip0_1_1222">
<rect width="18" height="18" fill="white" transform="translate(0 0.984375)"/>
</clipPath>
</defs>
</svg>
